<svg xmlns="http://www.w3.org/2000/svg" width="212.66" height="62.042" viewBox="0 0 212.66 62.042">
  <g id="Group_33479" data-name="Group 33479" transform="translate(1968.572 11006.521)">
    <path id="Path_73671" data-name="Path 73671" d="M11.621-3.662H5.2L3.979,0H.085L6.7-17.773H10.1L16.748,0H12.854ZM6.189-6.628h4.443L8.4-13.281ZM18.933,0V-17.773H24.4A8.3,8.3,0,0,1,28.6-16.718a7.363,7.363,0,0,1,2.887,3A9.262,9.262,0,0,1,32.52-9.29v.818A9.288,9.288,0,0,1,31.5-4.065a7.3,7.3,0,0,1-2.875,2.991A8.368,8.368,0,0,1,24.439,0ZM22.6-14.807V-2.942h1.77a3.977,3.977,0,0,0,3.284-1.4,6.344,6.344,0,0,0,1.16-4.016V-9.3a6.444,6.444,0,0,0-1.123-4.108,3.963,3.963,0,0,0-3.284-1.4ZM42-4.407l4.028-13.367H50.11L43.921,0H40.1L33.936-17.773H38ZM56.2,0H52.539V-17.773H56.2ZM69.336-4.663A1.879,1.879,0,0,0,68.6-6.256a9.607,9.607,0,0,0-2.637-1.172,18.692,18.692,0,0,1-3.015-1.215q-3.027-1.636-3.027-4.407a4.292,4.292,0,0,1,.812-2.57,5.3,5.3,0,0,1,2.332-1.764,8.776,8.776,0,0,1,3.412-.635,7.988,7.988,0,0,1,3.394.69,5.4,5.4,0,0,1,2.313,1.947,5.1,5.1,0,0,1,.824,2.856H69.349a2.4,2.4,0,0,0-.769-1.9,3.161,3.161,0,0,0-2.161-.677,3.377,3.377,0,0,0-2.087.568,1.79,1.79,0,0,0-.745,1.5,1.715,1.715,0,0,0,.873,1.453,9.861,9.861,0,0,0,2.57,1.1,11.1,11.1,0,0,1,4.553,2.332,4.643,4.643,0,0,1,1.428,3.467,4.277,4.277,0,0,1-1.746,3.619,7.642,7.642,0,0,1-4.7,1.312A9.075,9.075,0,0,1,62.83-.507a5.911,5.911,0,0,1-2.57-2.057,5.268,5.268,0,0,1-.885-3.027H63.05q0,2.942,3.516,2.942A3.42,3.42,0,0,0,68.6-3.18,1.728,1.728,0,0,0,69.336-4.663ZM96.094-6.506H93.177V0H89.515V-17.773h6.6a7.465,7.465,0,0,1,4.858,1.4,4.845,4.845,0,0,1,1.709,3.967,5.468,5.468,0,0,1-.787,3.033,5.37,5.37,0,0,1-2.386,1.935l3.845,7.263V0H99.427ZM93.177-9.473h2.954a3.025,3.025,0,0,0,2.136-.7,2.509,2.509,0,0,0,.757-1.935,2.685,2.685,0,0,0-.714-1.978,2.968,2.968,0,0,0-2.191-.72H93.177Z" transform="translate(-1963.314 -10981.399)" fill="#10bc95"/>
    <path id="Path_73672" data-name="Path 73672" d="M-77.023,0V-17.062h5.977a7.848,7.848,0,0,1,4.711,1.189,4.067,4.067,0,0,1,1.605,3.486,3.855,3.855,0,0,1-.645,2.209,3.723,3.723,0,0,1-1.793,1.4A3.6,3.6,0,0,1-65.1-7.453a3.915,3.915,0,0,1,.756,2.438,4.5,4.5,0,0,1-1.57,3.727A7.069,7.069,0,0,1-70.391,0Zm3.516-7.43v4.605H-70.5a2.906,2.906,0,0,0,1.939-.592,2.029,2.029,0,0,0,.7-1.635A2.143,2.143,0,0,0-70.285-7.43Zm0-2.484h2.6q2.66-.047,2.66-2.121a1.96,1.96,0,0,0-.674-1.67,3.544,3.544,0,0,0-2.127-.51h-2.461Zm21.674,6.4H-58L-59.17,0h-3.738l6.352-17.062H-53.3L-46.912,0h-3.738Zm-5.215-2.848h4.266l-2.145-6.387ZM-31.2,0h-3.516l-6.844-11.227V0h-3.516V-17.062h3.516l6.855,11.25v-11.25h3.5Zm16.81-2.156A6.1,6.1,0,0,1-17.077-.393a11.238,11.238,0,0,1-3.844.627,7.614,7.614,0,0,1-3.885-.967,6.448,6.448,0,0,1-2.578-2.807,9.878,9.878,0,0,1-.932-4.324v-1.16a10.491,10.491,0,0,1,.861-4.424,6.372,6.372,0,0,1,2.484-2.859,7.156,7.156,0,0,1,3.8-.99,7.127,7.127,0,0,1,4.746,1.447,6.185,6.185,0,0,1,2.027,4.213h-3.422a3.4,3.4,0,0,0-1.037-2.145,3.312,3.312,0,0,0-2.209-.68,3.117,3.117,0,0,0-2.73,1.348,7.086,7.086,0,0,0-.949,4.008v1.09a6.746,6.746,0,0,0,1.02,4.055A3.491,3.491,0,0,0-20.733-2.59a3.9,3.9,0,0,0,2.824-.844V-6.375h-3.2v-2.59h6.715Zm6.6-.668H-.325V0h-10.98V-17.062H-7.79Zm19.576-.691H5.622L4.45,0H.712L7.063-17.062h3.258L16.708,0H12.97ZM6.571-6.363h4.266L8.692-12.75ZM18.542,0V-17.062h5.25a7.973,7.973,0,0,1,4.025,1.014,7.069,7.069,0,0,1,2.771,2.883,8.892,8.892,0,0,1,1,4.248v.785a8.917,8.917,0,0,1-.979,4.23,7.008,7.008,0,0,1-2.76,2.871A8.033,8.033,0,0,1,23.827,0Zm3.516-14.215V-2.824h1.7a3.818,3.818,0,0,0,3.152-1.348,6.09,6.09,0,0,0,1.113-3.855v-.9a6.187,6.187,0,0,0-1.078-3.943,3.8,3.8,0,0,0-3.152-1.342Zm22.588,6.82h-6.75v4.57h7.922V0H34.379V-17.062H45.793v2.848h-7.9v4.066h6.75ZM56.967-4.477a1.8,1.8,0,0,0-.7-1.529,9.222,9.222,0,0,0-2.531-1.125A17.944,17.944,0,0,1,50.838-8.3q-2.906-1.57-2.906-4.23a4.12,4.12,0,0,1,.779-2.467,5.083,5.083,0,0,1,2.238-1.693,8.425,8.425,0,0,1,3.275-.609,7.668,7.668,0,0,1,3.258.662A5.187,5.187,0,0,1,59.7-14.766a4.891,4.891,0,0,1,.791,2.742H56.979a2.3,2.3,0,0,0-.738-1.822,3.035,3.035,0,0,0-2.074-.65,3.242,3.242,0,0,0-2,.545,1.719,1.719,0,0,0-.715,1.436,1.646,1.646,0,0,0,.838,1.395,9.466,9.466,0,0,0,2.467,1.055,10.658,10.658,0,0,1,4.371,2.238A4.458,4.458,0,0,1,60.494-4.5a4.106,4.106,0,0,1-1.676,3.475A7.336,7.336,0,0,1,54.307.234a8.712,8.712,0,0,1-3.586-.721,5.674,5.674,0,0,1-2.467-1.975,5.057,5.057,0,0,1-.85-2.906h3.527q0,2.824,3.375,2.824a3.283,3.283,0,0,0,1.957-.51A1.658,1.658,0,0,0,56.967-4.477ZM77,0H73.484V-7.312H66.629V0H63.113V-17.062h3.516v6.914h6.855v-6.914H77Z" transform="translate(-1842.167 -10956.043)" fill="#fff"/>
    <path id="Path_73673" data-name="Path 73673" d="M-11.293-1.25a.678.678,0,0,1,.513.188.653.653,0,0,1,.181.471.63.63,0,0,1-.181.461.688.688,0,0,1-.513.183.69.69,0,0,1-.5-.181.619.619,0,0,1-.186-.464.653.653,0,0,1,.181-.471A.671.671,0,0,1-11.293-1.25ZM-3.6-2.314A2.567,2.567,0,0,1-4.44-.54,2.863,2.863,0,0,1-6.388.1a2.772,2.772,0,0,1-1.5-.4,2.644,2.644,0,0,1-1-1.145,4.132,4.132,0,0,1-.366-1.724v-.664A4.162,4.162,0,0,1-8.893-5.61,2.686,2.686,0,0,1-7.87-6.792a2.853,2.853,0,0,1,1.541-.415,2.741,2.741,0,0,1,1.895.64A2.672,2.672,0,0,1-3.6-4.761H-4.83a1.756,1.756,0,0,0-.447-1.106,1.477,1.477,0,0,0-1.052-.339,1.443,1.443,0,0,0-1.238.588,2.939,2.939,0,0,0-.442,1.726v.63A3.117,3.117,0,0,0-7.6-1.5,1.37,1.37,0,0,0-6.388-.9a1.6,1.6,0,0,0,1.094-.327A1.706,1.706,0,0,0-4.83-2.314ZM3.278-3.369a4.362,4.362,0,0,1-.361,1.833A2.732,2.732,0,0,1,1.883-.325,2.841,2.841,0,0,1,.338.1,2.847,2.847,0,0,1-1.2-.325a2.774,2.774,0,0,1-1.045-1.2,4.225,4.225,0,0,1-.374-1.8v-.4a4.324,4.324,0,0,1,.369-1.836,2.771,2.771,0,0,1,1.04-1.218A2.832,2.832,0,0,1,.328-7.207a2.857,2.857,0,0,1,1.541.417,2.736,2.736,0,0,1,1.038,1.2,4.315,4.315,0,0,1,.371,1.824ZM2.042-3.74A3.108,3.108,0,0,0,1.6-5.552a1.462,1.462,0,0,0-1.267-.63,1.457,1.457,0,0,0-1.252.627,3.048,3.048,0,0,0-.461,1.775v.41A3.084,3.084,0,0,0-.929-1.558a1.47,1.47,0,0,0,1.267.64A1.453,1.453,0,0,0,1.6-1.543a3.151,3.151,0,0,0,.442-1.826ZM6.21-7.109,8.26-1.66l2.046-5.449h1.6V0h-1.23V-2.344l.122-3.135L8.695,0H7.811L5.716-5.474l.122,3.13V0H4.608V-7.109Z" transform="translate(-1785.276 -10944.576)" fill="#fff"/>
    <path id="Path_33973" data-name="Path 33973" d="M-1876.434-10795.785h-125.971v-27.172h-40.167v-30.564h116.791v26.063h93.869v31.674h-10.547" transform="translate(75 -151.999)" fill="none" stroke="#fff" stroke-width="2"/>
    <g id="Group_33478" data-name="Group 33478" transform="translate(-14127.572 -15419.054)">
      <rect id="Rectangle_33935" data-name="Rectangle 33935" width="13" height="3" rx="1.5" transform="translate(12239 4421.19)" fill="#10bc95"/>
      <rect id="Rectangle_33936" data-name="Rectangle 33936" width="13" height="3" rx="1.5" transform="translate(12239 4433.19)" fill="#10bc95"/>
      <rect id="Rectangle_33937" data-name="Rectangle 33937" width="9" height="3" rx="1.5" transform="translate(12239 4427.19)" fill="#10bc95"/>
    </g>
  </g>
</svg>
