<svg width="177" height="51" viewBox="0 0 177 51" fill="none" xmlns="http://www.w3.org/2000/svg">
<mask id="mask0_921_3110" style="mask-type:luminance" maskUnits="userSpaceOnUse" x="5" y="41" width="20" height="10">
<path d="M5.875 44.4909C9.80087 47.8295 15.8491 50.0515 24.4872 50.0515V47.9132C17.0827 47.6174 12.3316 45.2094 9.6263 41.9746C8.26026 42.6197 6.99985 43.4681 5.88798 44.4909" fill="white"/>
</mask>
<g mask="url(#mask0_921_3110)">
<path d="M5.87501 41.9746H24.48V50.0514H5.87501V41.9746Z" fill="#2DAA67"/>
</g>
<mask id="mask1_921_3110" style="mask-type:luminance" maskUnits="userSpaceOnUse" x="5" y="43" width="20" height="8">
<path d="M5.875 44.4927C9.80087 47.8314 15.8491 50.0533 24.4872 50.0533V47.915C19.7057 48.9366 10.8296 47.3668 6.89795 43.6328C6.54656 43.9037 6.20946 44.1927 5.88798 44.4985" fill="white"/>
</mask>
<g mask="url(#mask1_921_3110)">
<path d="M5.87501 43.6328H24.48V50.0533H5.87501V43.6328Z" fill="#2DAA67"/>
</g>
<mask id="mask2_921_3110" style="mask-type:luminance" maskUnits="userSpaceOnUse" x="-1" y="25" width="10" height="19">
<path d="M1.16983 25.1811C-0.994375 31.0533 -0.311939 38.1202 4.53156 43.2162C5.98097 42.4861 7.33289 41.5767 8.55554 40.5095C6.19944 36.6904 6.24707 32.0879 7.84569 28.4448C5.72329 27.1576 3.48891 26.0648 1.16983 25.1797" fill="white"/>
</mask>
<g mask="url(#mask2_921_3110)">
<path d="M-0.997268 25.1816H8.55554V43.2196H-0.997268V25.1816Z" fill="#2DAA67"/>
</g>
<mask id="mask3_921_3110" style="mask-type:luminance" maskUnits="userSpaceOnUse" x="-1" y="25" width="7" height="19">
<path d="M1.16979 25.1811C-0.994418 31.0533 -0.311982 38.1202 4.53151 43.2162C4.96724 42.995 5.39143 42.7603 5.80408 42.5121C2.2793 38.5891 -0.795311 32.1427 1.16979 25.1797" fill="white"/>
</mask>
<g mask="url(#mask3_921_3110)">
<path d="M-0.997303 25.1816H5.80408V43.2196H-0.997303V25.1816Z" fill="#2DAA67"/>
</g>
<mask id="mask4_921_3110" style="mask-type:luminance" maskUnits="userSpaceOnUse" x="1" y="14" width="21" height="13">
<path d="M21.9247 15.11C16.4521 12.9458 11.284 14.2529 7.54568 16.7995C5.11889 18.4515 3.17977 20.8091 1.87547 23.5158C4.06366 24.7904 6.3416 25.9043 8.69128 26.8487C9.82533 25.0336 11.3936 23.5865 13.2592 22.7972C14.9906 22.0629 16.9513 22.0181 18.8674 22.4769C20.0461 20.0906 21.0674 17.6297 21.9247 15.11Z" fill="white"/>
</mask>
<g mask="url(#mask4_921_3110)">
<path d="M1.87268 12.9414H21.9233V26.85H1.87268V12.9414Z" fill="#2DAA67"/>
</g>
<mask id="mask5_921_3110" style="mask-type:luminance" maskUnits="userSpaceOnUse" x="8" y="20" width="12" height="7">
<path d="M8.68977 26.8479C9.82382 25.0329 11.3922 23.5857 13.2577 22.7965C14.9891 22.0621 16.9498 22.0174 18.8659 22.4762C19.1544 21.8933 19.4319 21.3114 19.6984 20.7304C15.7826 20.1836 11.2565 21.7938 8.68977 26.8479Z" fill="white"/>
</mask>
<g mask="url(#mask5_921_3110)">
<path d="M8.68976 20.1836H19.6984V26.8479H8.68976V20.1836Z" fill="#2DAA67"/>
</g>
<mask id="mask6_921_3110" style="mask-type:luminance" maskUnits="userSpaceOnUse" x="28" y="0" width="10" height="9">
<path d="M37.8098 8.35097C37.3463 5.58662 37.3463 2.76435 37.8098 0H28.4705C28.8997 2.76711 28.8997 5.58386 28.4705 8.35097C31.5787 8.59985 34.7017 8.59985 37.8098 8.35097Z" fill="white"/>
</mask>
<g mask="url(#mask6_921_3110)">
<path d="M28.4705 0H37.8098V8.60345H28.4705V0Z" fill="#2DAA67"/>
</g>
<mask id="mask7_921_3110" style="mask-type:luminance" maskUnits="userSpaceOnUse" x="28" y="0" width="3" height="9">
<path d="M29.9235 0H28.4706C28.8997 2.76711 28.8997 5.58386 28.4706 8.35097C29.1198 8.40099 29.7686 8.44185 30.4169 8.47359C30.4169 8.47359 31.0272 2.93755 29.9235 0Z" fill="white"/>
</mask>
<g mask="url(#mask7_921_3110)">
<path d="M28.4707 0H31.0259V8.47215H28.4707V0Z" fill="#2DAA67"/>
</g>
<mask id="mask8_921_3110" style="mask-type:luminance" maskUnits="userSpaceOnUse" x="20" y="10" width="18" height="24">
<path d="M37.81 33.5345C36.9689 26.0045 37.0886 18.1759 37.81 10.1611C34.6997 9.97495 31.5811 9.97495 28.4707 10.1611C28.9671 14.8314 28.5068 20.0097 28.8185 24.957L27.6642 18.7011C26.4171 17.5985 25.0436 16.6477 23.5724 15.8688C22.3547 18.1564 21.3584 20.5551 20.5974 23.0324C24.8421 24.7291 28.4765 28.7257 28.4765 32.829V33.5403C31.5865 33.7372 34.7058 33.7372 37.8158 33.5403" fill="white"/>
</mask>
<g mask="url(#mask8_921_3110)">
<path d="M20.5901 9.9668H37.8099V33.7356H20.5901V9.9668Z" fill="#2DAA67"/>
</g>
<mask id="mask9_921_3110" style="mask-type:luminance" maskUnits="userSpaceOnUse" x="28" y="10" width="3" height="15">
<path d="M30.3419 10.0664C29.7186 10.0876 29.0934 10.1174 28.4662 10.1559C28.9626 14.8262 28.5023 20.0044 28.8139 24.9518C28.8139 24.9518 31.0705 16.0064 30.3376 10.0664" fill="white"/>
</mask>
<g mask="url(#mask9_921_3110)">
<path d="M28.4706 10.0664H31.0748V24.9518H28.4706V10.0664Z" fill="#2DAA67"/>
</g>
<mask id="mask10_921_3110" style="mask-type:luminance" maskUnits="userSpaceOnUse" x="20" y="21" width="11" height="13">
<path d="M21.2536 21.0684C21.017 21.7205 20.7962 22.3736 20.5914 23.0277C24.8361 24.7244 28.4705 28.721 28.4705 32.8243V33.5356C29.0957 33.5751 29.7209 33.6063 30.3462 33.6294C30.5381 27.359 25.4623 22.325 21.2565 21.0684" fill="white"/>
</mask>
<g mask="url(#mask10_921_3110)">
<path d="M20.5912 21.0664H30.535V33.6275H20.5912V21.0664Z" fill="#2DAA67"/>
</g>
<mask id="mask11_921_3110" style="mask-type:luminance" maskUnits="userSpaceOnUse" x="28" y="35" width="10" height="16">
<path d="M37.8098 50.0536C37.2327 46.0397 36.9614 41.5411 37.8098 35.337C34.7004 35.122 31.5799 35.122 28.4705 35.337C29.0058 40.1921 28.9337 45.1034 28.4705 50.0536H37.8098Z" fill="white"/>
</mask>
<g mask="url(#mask11_921_3110)">
<path d="M28.4704 35.125H37.8097V50.0537H28.4704V35.125Z" fill="#2DAA67"/>
</g>
<mask id="mask12_921_3110" style="mask-type:luminance" maskUnits="userSpaceOnUse" x="28" y="35" width="8" height="16">
<path d="M30.4082 35.2363C29.7628 35.2613 29.1169 35.2964 28.4705 35.3417C29.0058 40.1967 28.9336 45.108 28.4705 50.0583H35.7206C33.3703 50.0583 30.4082 48.2403 30.7371 44.6896C31.0661 41.1388 30.4082 35.2493 30.4082 35.2407" fill="white"/>
</mask>
<g mask="url(#mask12_921_3110)">
<path d="M28.4705 35.2344H35.7206V50.052H28.4705V35.2344Z" fill="#2DAA67"/>
</g>
<mask id="mask13_921_3110" style="mask-type:luminance" maskUnits="userSpaceOnUse" x="38" y="18" width="5" height="15">
<path d="M41.8093 18.1113C40.2327 20.0967 39.2235 22.4721 38.889 24.9851C38.5544 27.4981 38.9069 30.0548 39.9091 32.3835C41.4857 30.3982 42.4948 28.0228 42.8294 25.5098C43.164 22.9967 42.8115 20.44 41.8093 18.1113Z" fill="white"/>
</mask>
<g mask="url(#mask13_921_3110)">
<path d="M39.7247 17.4233L46.1538 18.2676L44.2348 32.8813L37.8057 32.0371L39.7247 17.4233Z" fill="#2DAA67"/>
</g>
<mask id="mask14_921_3110" style="mask-type:luminance" maskUnits="userSpaceOnUse" x="39" y="29" width="16" height="5">
<path d="M54.2723 31.3919C52.0121 30.2439 49.483 29.7299 46.9539 29.9044C44.4249 30.0789 41.9904 30.9355 39.9092 32.3831C42.1697 33.5301 44.6987 34.0437 47.2275 33.8692C49.7564 33.6947 52.1908 32.8386 54.2723 31.3919Z" fill="white"/>
</mask>
<g mask="url(#mask14_921_3110)">
<path d="M54.2073 28.7247L54.5735 34.0273L39.9797 35.035L39.6135 29.7324L54.2073 28.7247Z" fill="#2DAA67"/>
</g>
<mask id="mask15_921_3110" style="mask-type:luminance" maskUnits="userSpaceOnUse" x="42" y="20" width="12" height="10">
<path d="M53.0634 20.1406C50.5832 20.6652 48.2914 21.8516 46.4314 23.5739C44.5713 25.2963 43.2125 27.4903 42.4991 29.9228C44.9796 29.399 47.2718 28.2128 49.1319 26.4904C50.9921 24.7679 52.3507 22.5736 53.0634 20.1406Z" fill="white"/>
</mask>
<g mask="url(#mask15_921_3110)">
<path d="M48.1946 14.9041L57.9486 25.4375L47.3845 35.2199L37.6305 24.6866L48.1946 14.9041Z" fill="#2DAA67"/>
</g>
<mask id="mask16_921_3110" style="mask-type:luminance" maskUnits="userSpaceOnUse" x="9" y="30" width="5" height="11">
<path d="M13.3746 30.1699C11.8737 31.465 10.752 33.1427 10.1288 35.0245C9.50563 36.9063 9.4042 38.9219 9.83536 40.8568C11.3362 39.5617 12.4579 37.884 13.0811 36.0022C13.7043 34.1204 13.8057 32.1048 13.3746 30.1699Z" fill="white"/>
</mask>
<g mask="url(#mask16_921_3110)">
<path d="M9.8658 28.8848L17.021 31.2539L13.397 42.199L6.24181 39.8299L9.8658 28.8848Z" fill="#2DAA67"/>
</g>
<mask id="mask17_921_3110" style="mask-type:luminance" maskUnits="userSpaceOnUse" x="9" y="39" width="13" height="5">
<path d="M21.014 42.1866C19.4444 40.9763 17.5763 40.2135 15.6081 39.9793C13.6399 39.745 11.645 40.0481 9.83519 40.8563C11.4043 42.0678 13.2724 42.8313 15.2409 43.0656C17.2093 43.2998 19.2045 42.9961 21.014 42.1866Z" fill="white"/>
</mask>
<g mask="url(#mask17_921_3110)">
<path d="M9.96718 38.3993L21.41 39.7617L20.8331 44.607L9.39027 43.2446L9.96718 38.3993Z" fill="#2DAA67"/>
</g>
<mask id="mask18_921_3110" style="mask-type:luminance" maskUnits="userSpaceOnUse" x="12" y="33" width="10" height="7">
<path d="M21.724 33.3711C19.7423 33.4125 17.8088 33.9898 16.1289 35.0417C14.4489 36.0937 13.0853 37.581 12.1827 39.3457C14.1644 39.3044 16.0979 38.7271 17.7779 37.6751C19.4578 36.6231 20.8215 35.1358 21.724 33.3711Z" fill="white"/>
</mask>
<g mask="url(#mask18_921_3110)">
<path d="M18.1588 28.1212L23.5269 36.7305L13.9574 42.6973L8.58927 34.0881L18.1588 28.1212Z" fill="#2DAA67"/>
</g>
<path d="M173.648 37.9327C172.61 37.9327 171.812 37.6421 171.254 37.061C170.704 36.4722 170.429 35.6626 170.429 34.6321V27.973H169.208C169.053 27.973 168.922 27.9226 168.813 27.8219C168.705 27.7212 168.651 27.5701 168.651 27.3687V26.2298L170.568 25.916L171.172 22.6619C171.211 22.507 171.285 22.3869 171.393 22.3017C171.502 22.2164 171.641 22.1738 171.812 22.1738H173.299V25.9276H176.483V27.973H173.299V34.4346C173.299 34.8065 173.388 35.097 173.566 35.3062C173.752 35.5154 174.004 35.62 174.322 35.62C174.5 35.62 174.647 35.6006 174.763 35.5619C174.887 35.5154 174.992 35.4689 175.077 35.4224C175.17 35.3759 175.252 35.3333 175.321 35.2946C175.391 35.2481 175.461 35.2248 175.53 35.2248C175.616 35.2248 175.685 35.2481 175.74 35.2946C175.794 35.3333 175.852 35.3953 175.914 35.4805L176.774 36.8751C176.356 37.2237 175.875 37.4872 175.333 37.6654C174.791 37.8436 174.229 37.9327 173.648 37.9327Z" fill="#2DAA67"/>
<path d="M166.734 28.147C166.657 28.2709 166.575 28.36 166.49 28.4143C166.405 28.4608 166.296 28.484 166.165 28.484C166.025 28.484 165.874 28.4453 165.711 28.3678C165.556 28.2903 165.374 28.2051 165.165 28.1121C164.956 28.0114 164.716 27.9223 164.445 27.8448C164.181 27.7673 163.867 27.7286 163.503 27.7286C162.938 27.7286 162.492 27.8487 162.167 28.0889C161.849 28.329 161.69 28.6428 161.69 29.0302C161.69 29.2859 161.772 29.5028 161.934 29.681C162.105 29.8515 162.326 30.0025 162.597 30.1343C162.876 30.266 163.189 30.3861 163.538 30.4945C163.887 30.5952 164.239 30.7076 164.596 30.8316C164.96 30.9555 165.316 31.0988 165.665 31.2616C166.014 31.4165 166.323 31.6179 166.595 31.8659C166.874 32.1061 167.094 32.3966 167.257 32.7375C167.427 33.0784 167.513 33.489 167.513 33.9694C167.513 34.5427 167.408 35.0734 167.199 35.5615C166.997 36.0419 166.695 36.4603 166.292 36.8167C165.89 37.1653 165.39 37.4403 164.793 37.6418C164.204 37.8355 163.523 37.9323 162.748 37.9323C162.337 37.9323 161.934 37.8936 161.539 37.8161C161.152 37.7464 160.776 37.6457 160.412 37.514C160.056 37.3822 159.722 37.2273 159.412 37.0491C159.11 36.8709 158.843 36.6772 158.611 36.468L159.273 35.3756C159.358 35.2439 159.459 35.1432 159.575 35.0734C159.691 35.0037 159.839 34.9688 160.017 34.9688C160.195 34.9688 160.362 35.0192 160.517 35.1199C160.679 35.2206 160.865 35.3291 161.074 35.4453C161.284 35.5615 161.528 35.67 161.807 35.7707C162.093 35.8714 162.453 35.9218 162.887 35.9218C163.228 35.9218 163.519 35.8831 163.759 35.8056C164.007 35.7204 164.208 35.6119 164.363 35.4802C164.526 35.3485 164.642 35.1974 164.712 35.0269C164.789 34.8487 164.828 34.6667 164.828 34.4807C164.828 34.2018 164.743 33.9732 164.572 33.7951C164.41 33.6169 164.189 33.4619 163.91 33.3302C163.639 33.1985 163.325 33.0823 162.969 32.9815C162.62 32.8731 162.26 32.7569 161.888 32.6329C161.524 32.5089 161.163 32.3656 160.807 32.2029C160.458 32.0324 160.145 31.8194 159.866 31.5637C159.595 31.308 159.374 30.9943 159.203 30.6224C159.041 30.2505 158.959 29.8011 158.959 29.2743C158.959 28.7862 159.056 28.3213 159.25 27.8797C159.443 27.4381 159.726 27.0545 160.098 26.7291C160.478 26.396 160.947 26.1326 161.504 25.9389C162.07 25.7374 162.721 25.6367 163.457 25.6367C164.278 25.6367 165.026 25.7723 165.7 26.0435C166.374 26.3146 166.936 26.671 167.385 27.1127L166.734 28.147Z" fill="#2DAA67"/>
<path d="M156.613 25.8223V37.746H154.858C154.478 37.746 154.238 37.5717 154.137 37.223L153.94 36.27C153.452 36.7659 152.913 37.1688 152.324 37.4787C151.736 37.7808 151.042 37.9319 150.244 37.9319C149.593 37.9319 149.016 37.8235 148.513 37.6065C148.017 37.3818 147.598 37.0681 147.257 36.6652C146.917 36.2623 146.657 35.7858 146.479 35.2357C146.308 34.6779 146.223 34.0658 146.223 33.3995V25.8223H149.094V33.3995C149.094 34.1278 149.26 34.6934 149.593 35.0963C149.934 35.4914 150.442 35.689 151.116 35.689C151.612 35.689 152.077 35.5805 152.51 35.3636C152.944 35.1389 153.355 34.8328 153.742 34.4455V25.8223H156.613Z" fill="#2DAA67"/>
<path d="M140.376 27.891C140.748 27.1782 141.19 26.6204 141.701 26.2175C142.213 25.8069 142.817 25.6016 143.514 25.6016C144.064 25.6016 144.506 25.7217 144.839 25.9618L144.653 28.1118C144.614 28.2513 144.556 28.352 144.479 28.414C144.409 28.4682 144.312 28.4953 144.188 28.4953C144.072 28.4953 143.898 28.476 143.665 28.4372C143.441 28.3985 143.22 28.3791 143.003 28.3791C142.685 28.3791 142.402 28.4256 142.155 28.5186C141.907 28.6115 141.682 28.7471 141.48 28.9253C141.287 29.0958 141.112 29.305 140.957 29.5529C140.81 29.8008 140.671 30.0836 140.539 30.4013V37.7461H137.669V25.8224H139.354C139.648 25.8224 139.853 25.8766 139.97 25.9851C140.086 26.0858 140.163 26.2717 140.202 26.5429L140.376 27.891Z" fill="#2DAA67"/>
<path d="M138.261 23.5098H133.194V37.7462H130.067V23.5098H125V20.9414H138.261V23.5098Z" fill="#2DAA67"/>
<path d="M118.195 25.8228V37.7465H115.313V25.8228H118.195ZM118.59 22.3479C118.59 22.5959 118.54 22.8283 118.439 23.0452C118.338 23.2622 118.203 23.452 118.032 23.6147C117.869 23.7774 117.676 23.9091 117.451 24.0098C117.226 24.1028 116.986 24.1493 116.731 24.1493C116.483 24.1493 116.246 24.1028 116.022 24.0098C115.805 23.9091 115.615 23.7774 115.452 23.6147C115.289 23.452 115.158 23.2622 115.057 23.0452C114.964 22.8283 114.918 22.5959 114.918 22.3479C114.918 22.0923 114.964 21.8521 115.057 21.6274C115.158 21.4027 115.289 21.209 115.452 21.0463C115.615 20.8836 115.805 20.7558 116.022 20.6628C116.246 20.5621 116.483 20.5117 116.731 20.5117C116.986 20.5117 117.226 20.5621 117.451 20.6628C117.676 20.7558 117.869 20.8836 118.032 21.0463C118.203 21.209 118.338 21.4027 118.439 21.6274C118.54 21.8521 118.59 22.0923 118.59 22.3479Z" fill="#2DAA67"/>
<path d="M104.971 27.1009C105.436 26.667 105.947 26.3145 106.505 26.0433C107.063 25.7721 107.717 25.6365 108.469 25.6365C109.12 25.6365 109.697 25.7489 110.2 25.9736C110.704 26.1905 111.122 26.5004 111.456 26.9033C111.796 27.2984 112.052 27.7749 112.223 28.3327C112.401 28.8828 112.49 29.491 112.49 30.1573V37.7462H109.619V30.1573C109.619 29.429 109.453 28.8673 109.12 28.4722C108.786 28.0693 108.279 27.8679 107.597 27.8679C107.101 27.8679 106.637 27.9802 106.203 28.2049C105.769 28.4296 105.358 28.7356 104.971 29.123V37.7462H102.1V20.4766H104.971V27.1009Z" fill="#2DAA67"/>
<path d="M99.1611 28.147C99.0836 28.2709 99.0022 28.36 98.917 28.4143C98.8318 28.4608 98.7233 28.484 98.5916 28.484C98.4522 28.484 98.3011 28.4453 98.1384 28.3678C97.9834 28.2903 97.8013 28.2051 97.5922 28.1121C97.383 28.0114 97.1428 27.9223 96.8716 27.8448C96.6082 27.7673 96.2944 27.7286 95.9303 27.7286C95.3647 27.7286 94.9192 27.8487 94.5938 28.0889C94.2761 28.329 94.1173 28.6428 94.1173 29.0302C94.1173 29.2859 94.1987 29.5028 94.3614 29.681C94.5318 29.8515 94.7526 30.0025 95.0238 30.1343C95.3027 30.266 95.6165 30.3861 95.9651 30.4945C96.3138 30.5952 96.6663 30.7076 97.0227 30.8316C97.3868 30.9555 97.7432 31.0988 98.0919 31.2616C98.4405 31.4165 98.7504 31.6179 99.0216 31.8659C99.3005 32.1061 99.5213 32.3966 99.684 32.7375C99.8545 33.0784 99.9397 33.489 99.9397 33.9694C99.9397 34.5427 99.8351 35.0734 99.6259 35.5615C99.4245 36.0419 99.1223 36.4603 98.7194 36.8167C98.3166 37.1653 97.8168 37.4403 97.2203 37.6418C96.6314 37.8355 95.9496 37.9323 95.1749 37.9323C94.7642 37.9323 94.3614 37.8936 93.9662 37.8161C93.5788 37.7464 93.2031 37.6457 92.8389 37.514C92.4825 37.3822 92.1494 37.2273 91.8395 37.0491C91.5373 36.8709 91.27 36.6772 91.0376 36.468L91.7 35.3756C91.7853 35.2439 91.886 35.1432 92.0022 35.0734C92.1184 35.0037 92.2656 34.9688 92.4438 34.9688C92.622 34.9688 92.7886 35.0192 92.9435 35.1199C93.1062 35.2206 93.2922 35.3291 93.5014 35.4453C93.7106 35.5615 93.9546 35.67 94.2335 35.7707C94.5202 35.8714 94.8805 35.9218 95.3143 35.9218C95.6552 35.9218 95.9458 35.8831 96.1859 35.8056C96.4339 35.7204 96.6353 35.6119 96.7903 35.4802C96.953 35.3485 97.0692 35.1974 97.1389 35.0269C97.2164 34.8487 97.2551 34.6667 97.2551 34.4807C97.2551 34.2018 97.1699 33.9732 96.9995 33.7951C96.8368 33.6169 96.6159 33.4619 96.337 33.3302C96.0659 33.1985 95.7521 33.0823 95.3957 32.9815C95.047 32.8731 94.6868 32.7569 94.3149 32.6329C93.9507 32.5089 93.5905 32.3656 93.2341 32.2029C92.8854 32.0324 92.5716 31.8194 92.2927 31.5637C92.0216 31.308 91.8007 30.9943 91.6303 30.6224C91.4676 30.2505 91.3862 29.8011 91.3862 29.2743C91.3862 28.7862 91.4831 28.3213 91.6768 27.8797C91.8705 27.4381 92.1533 27.0545 92.5252 26.7291C92.9048 26.396 93.3735 26.1326 93.9314 25.9389C94.4969 25.7374 95.1478 25.6367 95.8838 25.6367C96.705 25.6367 97.4527 25.7723 98.1267 26.0435C98.8008 26.3146 99.3625 26.671 99.8119 27.1127L99.1611 28.147Z" fill="#2DAA67"/>
<path d="M87.1519 30.4132C87.1519 30.0413 87.0976 29.6926 86.9892 29.3672C86.8884 29.0341 86.7335 28.7435 86.5243 28.4956C86.3151 28.2477 86.0478 28.054 85.7224 27.9145C85.4048 27.7673 85.0329 27.6937 84.6067 27.6937C83.7777 27.6937 83.1231 27.93 82.6427 28.4026C82.1701 28.8753 81.8679 29.5454 81.7362 30.4132H87.1519ZM81.6781 32.1448C81.7246 32.7569 81.8331 33.2876 82.0035 33.7369C82.174 34.1786 82.3987 34.5466 82.6776 34.841C82.9565 35.1277 83.2858 35.3446 83.6654 35.4918C84.0528 35.6313 84.4789 35.701 84.9438 35.701C85.4086 35.701 85.8076 35.6468 86.1408 35.5383C86.4817 35.4298 86.7761 35.3097 87.024 35.178C87.2797 35.0463 87.5005 34.9262 87.6865 34.8177C87.8802 34.7093 88.0661 34.655 88.2443 34.655C88.4845 34.655 88.6627 34.7441 88.7789 34.9223L89.604 35.9683C89.2864 36.3402 88.93 36.654 88.5348 36.9096C88.1397 37.1576 87.7252 37.359 87.2913 37.514C86.8652 37.6612 86.4275 37.7658 85.9781 37.8277C85.5365 37.8897 85.1065 37.9207 84.6881 37.9207C83.8591 37.9207 83.0882 37.7851 82.3754 37.514C81.6626 37.235 81.0428 36.8283 80.516 36.2937C79.9891 35.7513 79.5746 35.085 79.2725 34.2948C78.9703 33.4968 78.8192 32.5748 78.8192 31.5288C78.8192 30.7153 78.9509 29.9522 79.2143 29.2394C79.4778 28.5189 79.8535 27.8952 80.3416 27.3683C80.8375 26.8337 81.4379 26.4115 82.143 26.1016C82.8558 25.7917 83.6577 25.6367 84.5486 25.6367C85.3002 25.6367 85.9936 25.7568 86.6289 25.997C87.2642 26.2372 87.8104 26.5897 88.2675 27.0545C88.7247 27.5117 89.081 28.0772 89.3367 28.7513C89.6001 29.4176 89.7319 30.1807 89.7319 31.0407C89.7319 31.4746 89.6854 31.769 89.5924 31.924C89.4994 32.0712 89.3212 32.1448 89.0578 32.1448H81.6781Z" fill="#2DAA67"/>
<path d="M77.3222 29.3438C77.3222 30.5757 77.1169 31.7068 76.7063 32.7373C76.2957 33.7677 75.7185 34.6548 74.9747 35.3986C74.2309 36.1424 73.336 36.7196 72.2901 37.1302C71.2442 37.5409 70.082 37.7462 68.8036 37.7462H62.4001V20.9414H68.8036C70.082 20.9414 71.2442 21.1506 72.2901 21.569C73.336 21.9796 74.2309 22.5568 74.9747 23.3006C75.7185 24.0366 76.2957 24.9199 76.7063 25.9503C77.1169 26.9807 77.3222 28.1119 77.3222 29.3438ZM74.1147 29.3438C74.1147 28.4218 73.9907 27.5967 73.7428 26.8684C73.5026 26.1324 73.1501 25.5126 72.6852 25.009C72.2281 24.4976 71.6703 24.1063 71.0117 23.8352C70.3609 23.564 69.6249 23.4284 68.8036 23.4284H65.538V35.2592H68.8036C69.6249 35.2592 70.3609 35.1236 71.0117 34.8524C71.6703 34.5812 72.2281 34.1939 72.6852 33.6903C73.1501 33.1789 73.5026 32.5591 73.7428 31.8308C73.9907 31.0948 74.1147 30.2658 74.1147 29.3438Z" fill="#2DAA67"/>
</svg>
