<?xml version="1.0" encoding="UTF-8"?><svg id="Layer_1" xmlns="http://www.w3.org/2000/svg" viewBox="0 0 914 300"><defs><style>.cls-1,.cls-2{fill:#007bf9;}.cls-3{fill:#f85464;}.cls-4{fill:#fff;}.cls-5{fill:#fcba2e;}.cls-6{fill:#1a314e;}.cls-7{fill:none;opacity:0;}.cls-2{opacity:.6;}</style></defs><g class="cls-7"><rect class="cls-4" width="914" height="300"/></g><path class="cls-6" d="m489.18,205.47c-9.44-10.62-13.13-24.34-10.92-41.16,2.21-16.67,9.44-30.09,21.68-40.27,12.25-10.18,26.41-15.34,42.19-15.34,20.06,0,35.55,9.15,44.4,23.31l-15.19,12.69c-7.08-11.06-17.26-16.67-30.39-16.67-10.47,0-19.77,3.39-27.59,10.18-7.82,6.64-12.39,15.49-13.87,26.41-1.62,10.77.59,19.62,6.49,26.55,5.9,6.93,14.01,10.33,24.49,10.33,13.13,0,25.08-5.6,35.55-16.96l12.54,13.57c-12.39,14.02-30.98,23.16-50.89,23.16-16.08,0-28.91-5.31-38.5-15.78Z"/><path class="cls-6" d="m660.61,139.52h18.29l-11.95,80.11h-18.29l1.47-10.18c-8.26,8.11-17.55,12.1-27.73,12.1-11.95,0-21.09-4.28-27.29-12.98s-8.41-19.03-6.49-31.13c1.92-11.95,6.93-21.54,15.34-28.76,8.41-7.38,18.29-11.06,29.65-11.06,10.77,0,19.18,4.28,25.37,12.68l1.62-10.77Zm-15.05,57.24c5.16-4.87,8.11-10.62,9.15-17.41,1.03-6.64-.44-12.24-4.13-16.96-3.69-4.87-9-7.23-15.78-7.23s-12.25,2.07-17.11,6.34c-4.87,4.28-7.97,9.59-9.29,15.93-1.33,7.08-.3,13.28,3.1,18.59,3.54,5.31,9,7.97,16.23,7.97s12.84-2.36,17.85-7.23Z"/><path class="cls-6" d="m686.43,219.63l12.1-80.11h18.29l-1.77,10.77c6.05-8.56,14.01-12.83,24.05-12.83,3.54,0,7.23.59,11.06,1.77l-5.02,18.29c-2.8-1.03-5.9-1.62-9-1.62-11.95,0-22.28,8.41-24.78,25.52l-5.75,38.21h-19.18Z"/><path class="cls-6" d="m822.15,148.82c6.49,7.38,8.85,17.41,6.93,29.94-.44,2.95-1.03,5.46-1.77,7.67h-61.22c.59,11.06,7.38,18.44,21.09,18.44,9,0,20.21-3.69,27.73-8.56l6.64,14.16c-10.62,7.23-22.57,10.92-35.99,10.92-30.24-.15-40.72-21.24-37.62-43.23,1.62-12.09,6.79-21.83,15.34-29.35,8.7-7.53,19.18-11.21,31.42-11.21s20.95,3.69,27.44,11.21Zm-53.7,23.01h42.78c.44-11.21-6.34-18.14-17.41-18.14-11.65,0-21.1,6.79-25.37,18.14Z"/><path class="cls-1" d="m345.15,107.51h19.18v112.12h-18.74v-10.47c-6.64,8.26-15.19,12.39-25.52,12.39-11.36,0-20.95-3.98-28.47-11.95-7.52-8.11-11.36-18.14-11.36-30.09s3.84-21.68,11.36-29.8c7.67-8.11,17.11-12.09,28.32-12.09,10.18,0,18.59,3.98,25.23,12.09v-42.19Zm-5.46,89.4c4.28-4.72,6.49-10.47,6.49-17.41s-2.21-12.54-6.64-17.26c-4.28-4.72-9.88-7.08-16.82-7.08s-12.54,2.36-16.82,7.08c-4.28,4.72-6.49,10.47-6.49,17.26s2.21,12.69,6.49,17.41c4.28,4.72,9.88,7.08,16.82,7.08s12.69-2.36,16.96-7.08Z"/><path class="cls-1" d="m382.92,186.14v-46.62h19.33v46.62c0,10.77,6.34,17.85,16.82,17.85s16.96-7.08,16.96-17.85v-46.62h19.33v46.62c0,22.27-13.72,35.4-36.29,35.4s-36.14-13.13-36.14-35.4Z"/><path class="cls-3" d="m715.26,287.06l191.92-19.87c2.61-.27,4.98,2.12,4.15,4.17l-9.62,23.72c-.42,1.03-1.56,1.64-2.91,1.57l-183.54-9.6Z"/><path class="cls-5" d="m721.29,272.2l150.74-41.01c2.69-.73,5.62,1.82,4.7,4.08l-8.64,21.29c-.35.87-1.22,1.46-2.33,1.56l-144.48,14.08Z"/><path class="cls-1" d="m250.31,71.05c-25.05,1.42-74.83,6.59-105.56,25.41-2.12,1.3-3.32,3.61-3.32,6.02v166.3c0,5.28,5.77,8.62,10.64,6.17,31.62-15.91,77.34-20.26,99.95-21.44,7.72-.41,13.72-6.59,13.72-14.01V85.08c0-8.09-7.02-14.51-15.43-14.03Z"/><path class="cls-4" d="m246.34,179.66h-65.18c2.68,11.81,11.49,19.68,26.14,19.68,10.39,0,19.84-2.99,28.18-8.82l8.19,14.64c-10.55,7.87-22.99,11.81-37.16,11.81-32.12,0-46.29-22.04-46.29-44.71,0-12.91,4.09-23.62,12.28-31.96,8.34-8.5,19.05-12.75,32.12-12.75s22.51,3.94,30.39,11.65c8.03,7.72,11.97,18.11,11.97,31.33,0,2.36-.16,5.35-.63,9.13Zm-65.18-15.58h45.66c-1.73-11.97-10.39-19.37-22.2-19.37s-20.78,7.4-23.46,19.37Z"/><polygon class="cls-5" points="195.52 3.33 205.8 18.03 223.5 17.82 212.97 32.22 218.73 49.26 201.94 43.47 187.79 54.21 187.94 36.22 173.45 25.82 190.33 20.5 195.52 3.33"/><polygon class="cls-3" points="140.69 42.52 148.29 53.38 161.37 53.22 153.59 63.86 157.84 76.45 145.44 72.17 134.99 80.1 135.1 66.82 124.39 59.14 136.86 55.21 140.69 42.52"/><polygon class="cls-1" points="259.83 23.46 267.42 34.32 280.5 34.16 272.72 44.81 276.97 57.39 264.57 53.11 254.12 61.05 254.23 47.76 243.52 40.08 256 36.15 259.83 23.46"/><path class="cls-2" d="m123.49,96.46c-30.73-18.81-80.51-23.98-105.55-25.41-8.42-.48-15.44,5.94-15.44,14.03v154.41c0,7.42,6,13.61,13.72,14.01,22.62,1.19,68.37,5.53,99.98,21.46,4.85,2.45,10.61-.89,10.61-6.15V102.4c0-2.42-1.2-4.63-3.32-5.94Z"/></svg>