<svg width="219" height="62" viewBox="0 0 219 62" fill="none" xmlns="http://www.w3.org/2000/svg">
<path class="path-1" d="M101.028 40.05C100.233 39.6145 99.4632 39.1326 98.7276 38.6125C97.8863 38.0249 96.9604 37.3188 95.9499 36.4944C95.5736 37.0313 95.1424 37.5345 94.6689 37.9953C94.1869 38.4646 93.65 38.8747 93.0708 39.2129C92.4831 39.5596 91.8616 39.8428 91.2106 40.0542C90.5595 40.2656 89.8788 40.3755 89.1897 40.3755C88.361 40.3798 87.5408 40.2191 86.7756 39.8978C86.1118 39.6568 85.5453 39.2087 85.1564 38.6168L86.6741 33.7379C86.8432 34.093 87.1223 34.3805 87.4732 34.5581C87.8325 34.7357 88.23 34.8244 88.6316 34.816C89.0248 34.816 89.418 34.7441 89.79 34.6173C90.1917 34.482 90.5679 34.2875 90.9104 34.0381C91.2655 33.7759 91.5742 33.4589 91.8278 33.0995C92.0984 32.7148 92.2887 32.2793 92.3859 31.8185H84.3108V26.4196H122.09V31.8185H119.812V51.2875H114.375V46.9709C113.525 45.8632 112.455 44.9458 111.238 44.2736C109.965 43.6436 108.557 43.335 107.141 43.373C104.689 43.373 103.382 43.9058 103.222 44.9712L103.26 45.3728C103.416 45.7068 103.716 45.952 104.08 46.0323C104.524 46.1803 104.989 46.2522 105.458 46.2522C106.126 46.1719 106.532 46.0112 106.676 45.7744C106.79 45.6222 106.862 45.4447 106.896 45.2544L111.453 48.1716C111.212 48.5014 110.937 48.8015 110.633 49.0721C110.21 49.4611 109.749 49.7993 109.255 50.091C108.688 50.425 108.092 50.7083 107.475 50.9324C106.828 51.1691 106.143 51.2917 105.454 51.2917C104.566 51.2325 103.687 51.0719 102.837 50.814C101.975 50.5603 101.154 50.184 100.398 49.6936C99.6831 49.2328 99.0658 48.6367 98.5796 47.9391C98.0976 47.2457 97.8355 46.4255 97.8186 45.58C97.7975 44.4723 98.1146 43.3857 98.7191 42.4598C99.3279 41.5466 100.089 40.7476 100.977 40.1007L101.015 40.0585L101.028 40.05ZM98.9517 31.8142C99.8184 32.6936 100.761 33.4969 101.772 34.2114C102.309 34.6342 102.951 34.8963 103.632 34.9724C104.241 35.0485 104.799 34.6173 104.875 34.0085C104.887 33.9028 104.887 33.7971 104.871 33.6956C104.871 32.4442 104.19 31.8185 102.833 31.8185H98.9559L98.9517 31.8142ZM110.147 31.8142C110.346 32.6006 110.451 33.4039 110.468 34.2114C110.506 35.5897 110.083 36.9383 109.267 38.0502L109.868 38.1306C111.009 38.342 112.113 38.7182 113.144 39.2509L114.383 39.8513V31.8142H110.147ZM123.579 31.8142H121.296V26.4153H131.252V31.8142H128.973V51.2833H123.574V31.8142H123.579ZM132.732 39.5342V31.8142H130.449V26.4153H144.003C144.219 26.1574 144.346 25.8319 144.362 25.4979C144.409 25.1681 144.181 24.8637 143.851 24.8172C143.796 24.8088 143.737 24.8088 143.682 24.8172C142.917 24.8172 142.156 24.8891 141.403 25.0371C140.65 25.1851 139.889 25.2569 139.124 25.2569H138.723C137.877 25.2569 137.04 25.0794 136.262 24.7369C135.471 24.386 134.736 23.9209 134.08 23.3586C133.417 22.7879 132.825 22.1368 132.326 21.4223C131.844 20.7459 131.43 20.0229 131.087 19.2619L135.966 16.9831C136.207 17.4778 136.486 17.9555 136.807 18.4037C137.036 18.725 137.306 19.0125 137.606 19.2619C137.86 19.4691 138.152 19.617 138.465 19.7016C138.799 19.7862 139.141 19.8242 139.484 19.8242C139.805 19.8242 140.126 19.7862 140.439 19.7227C140.786 19.6551 141.17 19.5959 141.597 19.5409L142.156 19.4606C142.616 19.3803 143.086 19.3422 143.555 19.338C144.35 19.3338 145.14 19.4902 145.872 19.7988C146.557 20.0863 147.195 20.4837 147.749 20.9784C148.265 21.435 148.696 21.9762 149.03 22.5765C149.334 23.1008 149.499 23.6926 149.508 24.2972C149.58 25.054 149.364 25.8108 148.907 26.4153H152.467V31.8142H138.118V42.2485C138.152 43.2251 138.507 44.1594 139.137 44.9077C139.632 45.432 140.316 45.7279 141.035 45.7279C141.597 45.7237 142.147 45.5926 142.654 45.3517C143.217 45.0853 143.724 44.7217 144.155 44.2736C144.629 43.7747 145.001 43.1913 145.255 42.5529C145.542 41.8214 145.686 41.0393 145.673 40.2529C145.673 39.2679 145.301 38.7732 144.553 38.7732C144.269 38.7732 143.999 38.8789 143.792 39.0734C143.572 39.289 143.458 39.5849 143.47 39.8936L143.551 40.2952L139.551 39.2552C139.336 38.9508 139.221 38.5872 139.23 38.2151C139.2 37.4119 139.416 36.617 139.851 35.9363C140.249 35.3402 140.773 34.8414 141.39 34.4778C141.991 34.1226 142.646 33.8647 143.327 33.7168C143.923 33.5815 144.532 33.5054 145.145 33.4969C146.024 33.48 146.899 33.6787 147.681 34.0761C148.4 34.4482 149.03 34.9682 149.542 35.5939C150.057 36.2365 150.45 36.9679 150.7 37.7543C150.966 38.5745 151.102 39.4327 151.102 40.291C151.102 41.6481 150.856 42.9968 150.383 44.2693C149.914 45.5461 149.208 46.7257 148.303 47.7488C147.394 48.7762 146.286 49.6133 145.043 50.2094C143.716 50.8351 142.257 51.1522 140.79 51.1268C139.276 51.1395 137.801 50.6702 136.571 49.7866C135.277 48.8565 134.258 47.5924 133.632 46.1296C133.311 45.4362 133.045 44.9035 132.833 44.5315C132.622 44.1594 132.453 43.8719 132.334 43.6732C132.233 43.5168 132.153 43.3477 132.093 43.1743C132.047 42.9925 132.026 42.8023 132.034 42.6163C132.055 42.1174 132.169 41.6312 132.372 41.1788C132.592 40.6588 132.706 40.105 132.715 39.5427L132.732 39.5342ZM141.048 24.7792L138.93 21.4223C145.136 16.0107 149.254 13.1062 151.279 12.7046L155.236 18.4586C155.076 18.4333 154.915 18.4121 154.759 18.3994C154.602 18.3868 154.442 18.3783 154.281 18.3783C153.334 18.3994 152.395 18.577 151.503 18.8983C150.294 19.3338 149.136 19.8961 148.045 20.5768L141.048 24.7792Z" fill="#10243E"/>
<path class="path-2" d="M178.062 31.8142H163.151V26.4153H185.74V31.8142H183.461V51.2832H178.062V41.5678C177.88 41.1915 177.623 40.8575 177.301 40.5869C176.942 40.274 176.549 40.0035 176.122 39.7879C175.665 39.5553 175.183 39.382 174.684 39.2678C174.194 39.1495 173.691 39.0903 173.183 39.086C172.363 39.0691 171.556 39.3143 170.883 39.7836C170.19 40.3375 169.822 41.1999 169.903 42.0835C169.915 42.5106 170.034 42.9291 170.241 43.3012C170.414 43.707 170.82 43.9691 171.26 43.9607C171.539 43.9522 171.792 43.7916 171.919 43.5421C172.114 43.1785 172.202 42.7727 172.177 42.3626V41.9609L176.375 44.2017C176.367 45.5715 175.775 46.8694 174.756 47.7784C173.581 48.7043 172.109 49.1651 170.617 49.0763C169.793 49.0806 168.972 48.9114 168.22 48.5774C167.476 48.2435 166.808 47.7573 166.262 47.1527C165.675 46.4931 165.227 45.7279 164.943 44.895C164.609 43.9226 164.449 42.9037 164.466 41.8764C164.436 40.6292 164.694 39.3904 165.227 38.2574C165.696 37.2808 166.372 36.4141 167.205 35.7207C168.038 35.0443 168.998 34.5327 170.025 34.2198C171.086 33.8858 172.19 33.721 173.302 33.721C174.942 33.7336 176.561 34.0888 178.058 34.761V31.8058L178.062 31.8142ZM187.215 26.4153C187.27 26.0433 187.317 25.6839 187.355 25.3372C187.393 25.0075 187.414 24.6735 187.414 24.3395C187.414 24.0266 187.389 23.7095 187.334 23.4009C187.283 23.1261 187.215 22.8513 187.135 22.5807C185.934 19.1689 183.63 17.4651 180.218 17.4651C177.821 17.4651 176.122 17.6722 175.12 18.0866C174.118 18.5009 173.619 18.9998 173.619 19.5874C173.619 20.0144 174.004 20.2258 174.777 20.2258C175.369 20.2089 175.957 20.1455 176.532 20.0271C177.365 19.8834 178.206 19.8157 179.052 19.8284C180.176 19.803 181.275 20.1793 182.15 20.8896C183.03 21.621 183.512 22.7245 183.448 23.866V26.4238H187.207L187.215 26.4153ZM192.614 31.8142V51.2832H187.215V31.8142H182.256V27.616H178.058V25.815C178.058 25.1216 177.673 24.7749 176.9 24.7749C176.612 24.7792 176.325 24.813 176.041 24.8764C175.707 24.944 175.369 25.0117 175.022 25.0751C174.676 25.1385 174.338 25.2104 174.004 25.2738C173.708 25.3372 173.407 25.3711 173.103 25.3753C172.427 25.3668 171.767 25.2019 171.167 24.8975C170.499 24.5678 169.898 24.1196 169.387 23.5785C168.85 23.0119 168.406 22.3651 168.068 21.659C167.725 20.9488 167.548 20.1709 167.548 19.3803C167.586 18.6784 167.784 17.9935 168.127 17.3805C168.617 16.4884 169.311 15.719 170.148 15.1398C171.332 14.3154 172.651 13.6981 174.046 13.3218C176.084 12.7764 178.193 12.5312 180.303 12.582C182.138 12.5481 183.96 12.861 185.681 13.4994C187.144 14.049 188.475 14.8946 189.6 15.9769C190.648 17.0085 191.46 18.2557 191.98 19.6339C192.517 21.0587 192.788 22.568 192.779 24.09C192.779 24.4367 192.767 24.7876 192.741 25.1512C192.716 25.5106 192.673 25.8784 192.619 26.2504V26.4111H194.902V31.81H192.619L192.614 31.8142ZM203.569 31.8142H194.094V26.4153H219V31.8142H208.646V36.8918C208.646 37.0525 208.714 37.2047 208.828 37.3104C208.925 37.4203 209.06 37.4879 209.208 37.4922C209.475 37.4922 209.682 37.2808 209.83 36.8538C209.978 36.4267 210.122 35.9659 210.27 35.4755C210.409 35.002 210.582 34.5412 210.79 34.0972C210.912 33.7252 211.259 33.4715 211.648 33.4588C212.286 33.518 212.899 33.7632 213.402 34.1564C214.159 34.6807 214.831 35.3148 215.402 36.0336C216.074 36.8749 216.624 37.8008 217.043 38.7901C217.495 39.8301 217.723 40.9547 217.723 42.0878C217.736 43.3688 217.474 44.6329 216.962 45.804C216.48 46.9159 215.778 47.9221 214.903 48.7635C214.028 49.5963 213.005 50.2517 211.885 50.6998C210.73 51.1691 209.496 51.4058 208.249 51.4016C206.448 51.4228 204.664 51.0338 203.032 50.2643C201.488 49.5372 200.102 48.5098 198.952 47.2457C197.806 45.9731 196.91 44.4934 196.314 42.8868C195.692 41.2507 195.371 39.5173 195.375 37.7712C195.367 36.1435 195.663 34.5285 196.254 33.0149L200.812 35.2134C200.656 35.6742 200.541 36.1519 200.474 36.6339C200.406 37.0905 200.377 37.5513 200.372 38.0122C200.372 39.0649 200.588 40.1049 201.011 41.0689C201.421 42.0159 201.996 42.8826 202.71 43.6267C203.412 44.3539 204.237 44.95 205.15 45.3812C206.042 45.8125 207.018 46.0408 208.008 46.0408C209.238 46.1169 210.447 45.6983 211.365 44.8824C212.164 44.1087 212.565 42.8699 212.565 41.1661V40.5658C211.551 42.2188 210.46 43.0433 209.289 43.0433C208.6 43.0306 207.923 42.8615 207.31 42.5444C206.651 42.2231 206.033 41.8214 205.471 41.3437C204.964 40.9167 204.507 40.4347 204.11 39.9062C203.805 39.5511 203.619 39.1114 203.569 38.6463V31.8142ZM207.809 52.5643C208.874 52.5769 209.898 53.0082 210.646 53.765C211.314 54.4921 211.673 55.4561 211.644 56.4454C211.665 57.4262 211.322 58.3817 210.684 59.1258C209.94 59.9206 208.896 60.3688 207.805 60.3646C206.735 60.3519 205.712 59.9291 204.947 59.185C204.253 58.4451 203.886 57.4601 203.928 56.4454C203.886 55.4392 204.253 54.4583 204.947 53.7269C205.72 52.9955 206.739 52.5812 207.805 52.5685L207.809 52.5643Z" fill="#6159FC"/>
<path class="path-3" d="M0 38.1136V42.3668L45.7702 4.25317V0L0 38.1136Z" fill="#6159FC"/>
<path class="path-4" d="M30.0935 16.2305V26.6393L35.0104 30.846V21.8957L40.7222 18.3063V35.7333L45.7702 40.0541V3.17505L30.0935 16.2305Z" fill="#6159FC"/>
<path class="path-5" d="M12.2563 43.8718V61.5567H17.4692V51.8328L23.181 46.8609V61.5567H27.9373V30.1653L12.2563 43.8718Z" fill="#6159FC"/>
<path class="path-6" d="M60.7027 30.9306V14.6874L48.1166 2.3042V40.3755L60.7027 30.9306Z" fill="#00D4FF"/>
<path class="path-7" d="M60.7027 46.2182V35.4458L48.1166 44.8949V55.6631L60.7027 46.2182Z" fill="#00D4FF"/>
<path class="path-8" d="M48.1166 60.1828V61.5568H60.7027V50.7336L48.1166 60.1828Z" fill="#00D4FF"/>
<path class="path-9" d="M45.7702 57.4219V43.8718L30.0935 30.1653V61.5567H40.2614L45.7702 57.4219Z" fill="#00D4FF"/>
</svg>
